<?xml version="1.0" encoding="utf-8"?>
<!-- Generator: Adobe Illustrator 16.0.0, SVG Export Plug-In . SVG Version: 6.00 Build 0)  -->
<!DOCTYPE svg PUBLIC "-//W3C//DTD SVG 1.1//EN" "http://www.w3.org/Graphics/SVG/1.1/DTD/svg11.dtd">
<svg version="1.1" id="Capa_1" xmlns="http://www.w3.org/2000/svg" xmlns:xlink="http://www.w3.org/1999/xlink" x="0px" y="0px"
	 width="512px" height="512px" viewBox="0 0 512 512" enable-background="new 0 0 512 512" xml:space="preserve">
<g>
	<g>
		<path fill="#007882" d="M512,256C512,114.618,397.382,0,256,0C114.618,0,0,114.618,0,256c0,141.382,114.618,256,256,256
			C397.382,512,512,397.382,512,256z M23.272,256C23.272,127.465,127.464,23.272,256,23.272
			c128.535,0,232.728,104.192,232.728,232.728S384.535,488.728,256,488.728C127.464,488.728,23.272,384.535,23.272,256z"/>
	</g>
</g>
<g>
	<path fill="#007882" d="M313.352,128.001H198.646c-38.953,0-70.644,31.693-70.644,70.646v114.704
		c0,38.955,31.691,70.646,70.644,70.646h114.706c38.955,0,70.646-31.691,70.646-70.646V198.647
		C384,159.694,352.307,128.001,313.352,128.001z M361.288,313.352c0,26.432-21.505,47.935-47.937,47.935H198.646
		c-26.428,0-47.931-21.503-47.931-47.935V198.647c0-26.429,21.502-47.933,47.931-47.933h114.706
		c26.43,0,47.935,21.504,47.935,47.933v114.704H361.288z"/>
	<path fill="#007882" d="M256,190.039c-36.373,0-65.964,29.591-65.964,65.964c0,36.372,29.591,65.962,65.964,65.962
		c36.374,0,65.965-29.59,65.965-65.962C321.965,219.63,292.373,190.039,256,190.039z M256,299.25c-23.847,0-43.25-19.4-43.25-43.248
		c0-23.849,19.402-43.251,43.25-43.251c23.85,0,43.25,19.402,43.25,43.251C299.25,279.85,279.847,299.25,256,299.25z"/>
	<path fill="#007882" d="M324.731,170.78c-4.378,0-8.675,1.771-11.767,4.875c-3.106,3.089-4.892,7.39-4.892,11.781
		c0,4.377,1.788,8.676,4.892,11.781c3.09,3.089,7.389,4.875,11.767,4.875c4.389,0,8.677-1.787,11.78-4.875
		c3.104-3.104,4.875-7.404,4.875-11.781c0-4.391-1.771-8.691-4.875-11.781C333.423,172.551,329.12,170.78,324.731,170.78z"/>
</g>
</svg>
